<svg xmlns="http://www.w3.org/2000/svg" width="100" height="100" viewBox="0 0 100 100">
  <g fill="none" fill-rule="evenodd" stroke="#9C92AC" stroke-width="0.5" opacity="0.2">
    <path d="M15.5 19.2l4.6 4.6m-10.4-3.8l4.6 4.6m5.8-10.5l4.6 4.6m-10.4-3.8l4.6 4.6"/>
    <path d="M45.5 69.2l4.6 4.6m-10.4-3.8l4.6 4.6m5.8-10.5l4.6 4.6m-10.4-3.8l4.6 4.6"/>
    <path d="M75.5 29.2l4.6 4.6m-10.4-3.8l4.6 4.6m5.8-10.5l4.6 4.6m-10.4-3.8l4.6 4.6"/>
    <path d="M25.5 79.2l4.6 4.6m-10.4-3.8l4.6 4.6m5.8-10.5l4.6 4.6m-10.4-3.8l4.6 4.6"/>
    <circle cx="12" cy="35" r="2"/>
    <circle cx="82" cy="65" r="2"/>
    <circle cx="32" cy="15" r="2"/>
    <circle cx="62" cy="85" r="2"/>
    <path d="M32 42l3 3-3 3-3-3z"/>
    <path d="M52 72l3 3-3 3-3-3z"/>
    <path d="M72 52l3 3-3 3-3-3z"/>
    <path d="M22 22l3 3-3 3-3-3z"/>
  </g>
</svg>