<svg width="200" height="200" viewBox="0 0 200 200" fill="none" xmlns="http://www.w3.org/2000/svg">
  <circle cx="100" cy="100" r="95" fill="white" stroke="#E5E7EB" stroke-width="2"/>
  <path d="M100 25C84.667 25 71.667 29.167 59.167 36.667C47.5 44.167 38.333 53.333 31.667 65C25 76.667 21.667 89.167 21.667 103.333C21.667 117.5 25 130 31.667 141.667C38.333 153.333 47.5 162.5 59.167 170C71.667 177.5 84.667 181.667 100 181.667C115.333 181.667 128.333 177.5 140.833 170C153.333 162.5 162.5 153.333 169.167 141.667C175.833 130 179.167 117.5 179.167 103.333C179.167 89.167 175.833 76.667 169.167 65C162.5 53.333 153.333 44.167 140.833 36.667C128.333 29.167 115.333 25 100 25Z" fill="white" stroke="#E5E7EB" stroke-width="2"/>
  <path d="M85 65C85 65 70 80 70 100C70 120 85 135 85 135" stroke="#93C5FD" stroke-width="8" stroke-linecap="round"/>
  <path d="M115 65C115 65 130 80 130 100C130 120 115 135 115 135" stroke="#F9A8D4" stroke-width="8" stroke-linecap="round"/>
  <circle cx="100" cy="100" r="20" fill="#FEF9C3"/>
</svg>